<svg width="100" height="128" viewBox="0 0 100 128" fill="none" xmlns="http://www.w3.org/2000/svg">
<path d="M78.6892 58.3815L98.4436 77.98L98.6737 78.2083C99.1648 78.6956 100 78.3477 100 77.6559V61.9635C100 56.1462 97.7189 50.5608 93.6465 46.4068L73.6805 26.0403C73.1963 25.5464 72.3566 25.8823 72.3467 26.5739L72.1204 42.2859C72.0335 48.3205 74.4048 54.1309 78.6892 58.3815Z" fill="#B73739"/>
<path d="M68.4591 98.4887L98.0764 98.8046C98.7759 98.8121 99.1293 97.9647 98.6317 97.4729L0.94606 0.93497C0.595139 0.588175 -7.62939e-06 0.836758 -7.62939e-06 1.33012V25.103C-7.62939e-06 32.5082 2.95686 39.6069 8.21385 44.8225L37.9639 74.3378C42.3446 78.684 42.3446 85.7672 37.9639 90.1134L1.34124 126.447C0.848 126.936 1.19453 127.778 1.88934 127.778H28.4047C33.3852 127.778 37.4838 124.69 38.9105 123.145L60.515 101.711C62.6253 99.6177 65.4865 98.4569 68.4591 98.4887Z" fill="#B73739"/>
</svg>
