<svg width="1440" height="462" viewBox="0 0 1440 462" fill="none" xmlns="http://www.w3.org/2000/svg">
<g style="mix-blend-mode:difference">
<path d="M0 461.648L23.8868 6.33731H92.6221L116.509 461.648H78.9726L74.0977 366.589L67.2729 376.338C58.8232 388.038 52.6484 397.463 48.7485 404.613C44.8486 411.762 42.2487 418.75 40.9487 425.574C39.6488 432.074 38.6738 441.011 38.0238 452.386L37.5363 461.648H0ZM43.8736 338.802C54.5983 323.528 61.4231 311.828 64.348 303.703C67.2729 295.578 68.7354 284.041 68.7354 269.092L58.0107 67.2729L43.8736 338.802Z" fill="#B73739"/>
<path d="M262.229 461.648H222.255L221.768 322.228C221.768 310.528 220.63 300.778 218.355 292.978C216.08 284.854 211.693 275.917 205.193 266.167C197.718 277.541 192.681 287.454 190.081 295.903C187.481 304.353 186.181 315.24 186.181 328.565V461.648H145.72V6.33731H207.63C244.029 6.33731 262.229 25.1867 262.229 62.8856V133.083C262.229 154.533 260.116 171.595 255.891 184.269C251.667 196.944 243.217 212.381 230.542 230.58C242.892 248.13 251.179 263.242 255.404 275.916C259.954 288.266 262.229 304.678 262.229 325.152V461.648ZM221.768 67.7604C221.768 61.2606 220.468 56.2232 217.868 52.6484C215.593 48.7485 211.043 46.7986 204.218 46.7986H186.181V222.293C187.156 221.318 187.806 220.343 188.131 219.368C188.781 218.393 189.431 217.581 190.081 216.931C203.081 199.056 211.53 185.407 215.43 175.982C219.655 166.232 221.768 153.883 221.768 138.933V67.7604Z" fill="#B73739"/>
<path d="M407.903 291.029V405.587C407.903 442.961 389.704 461.648 353.305 461.648H345.992C326.493 461.648 312.518 456.773 304.069 447.024C295.619 436.949 291.394 423.137 291.394 405.587V56.0608C291.394 38.1863 295.619 24.3742 304.069 14.6245C312.518 4.87484 326.493 0 345.992 0H353.305C389.704 0 407.903 18.6869 407.903 56.0608V170.62H367.442V61.4231C367.442 54.9233 366.142 49.886 363.542 46.3111C360.942 42.4112 356.23 40.4613 349.405 40.4613C342.58 40.4613 337.868 42.4112 335.268 46.3111C332.993 49.886 331.855 54.9233 331.855 61.4231V400.225C331.855 406.725 332.993 411.925 335.268 415.825C337.868 419.4 342.58 421.187 349.405 421.187C356.23 421.187 360.942 419.4 363.542 415.825C366.142 411.925 367.442 406.725 367.442 400.225V291.029H407.903Z" fill="#B73739"/>
<path d="M434.166 461.648L458.053 6.33731H526.788L550.675 461.648H513.139L508.264 366.589L501.439 376.338C492.989 388.038 486.815 397.463 482.915 404.613C479.015 411.762 476.415 418.75 475.115 425.574C473.815 432.074 472.84 441.011 472.19 452.386L471.703 461.648H434.166ZM478.04 338.802C488.765 323.528 495.589 311.828 498.514 303.703C501.439 295.578 502.902 284.041 502.902 269.092L492.177 67.2729L478.04 338.802Z" fill="#B73739"/>
<path d="M696.395 6.33731V461.648H656.909L618.397 211.568V461.648H579.886V6.33731H618.397L656.909 252.517V6.33731H696.395Z" fill="#B73739"/>
<path d="M766.022 47.286V213.518H802.095V254.467H766.022V420.7H802.095V461.648H725.56V6.33731H802.095V47.286H766.022Z" fill="#B73739"/>
<path d="M969.299 6.33731V420.7H1004.89V461.648H928.838V6.33731H969.299Z" fill="#B73739"/>
<path d="M1032.1 461.648L1055.98 6.33731H1124.72L1148.61 461.648H1111.07L1106.19 366.589L1099.37 376.338C1090.92 388.038 1084.75 397.463 1080.85 404.613C1076.95 411.762 1074.35 418.75 1073.05 425.574C1071.75 432.074 1070.77 441.011 1070.12 452.386L1069.63 461.648H1032.1ZM1075.97 338.802C1086.7 323.528 1093.52 311.828 1096.44 303.703C1099.37 295.578 1100.83 284.041 1100.83 269.092L1090.11 67.2729L1075.97 338.802Z" fill="#B73739"/>
<path d="M1294.33 133.083C1294.33 152.258 1292.54 167.857 1288.96 179.882C1285.71 191.907 1279.38 205.069 1269.95 219.368C1286.2 227.818 1294.33 244.555 1294.33 269.579V405.587C1294.33 442.961 1276.13 461.648 1239.73 461.648H1177.82V6.33731H1239.73C1276.13 6.33731 1294.33 25.1867 1294.33 62.8856V133.083ZM1235.83 421.187C1242.98 421.187 1247.69 419.4 1249.96 415.825C1252.56 411.925 1253.86 406.725 1253.86 400.225V274.942C1253.86 269.742 1253.21 265.517 1251.91 262.267C1250.61 259.017 1248.18 256.742 1244.6 255.442C1233.88 270.717 1226.73 283.066 1223.15 292.491C1219.9 301.591 1218.28 313.615 1218.28 328.565V421.187H1235.83ZM1253.86 67.7604C1253.86 61.2606 1252.56 56.2232 1249.96 52.6484C1247.69 48.7485 1242.98 46.7986 1235.83 46.7986H1218.28V222.293L1222.18 216.931C1235.18 199.056 1243.63 185.407 1247.53 175.982C1251.75 166.232 1253.86 153.883 1253.86 138.933V67.7604Z" fill="#B73739"/>
<path d="M1363.95 136.496C1363.95 152.095 1365.9 164.77 1369.8 174.52C1373.7 184.269 1382.15 198.081 1395.15 215.956C1408.15 234.155 1417.58 248.292 1423.43 258.367C1429.28 268.442 1433.5 279.004 1436.1 290.054C1438.7 300.778 1440 314.59 1440 331.49V405.587C1440 442.961 1421.8 461.648 1385.4 461.648H1378.09C1358.59 461.648 1344.62 456.773 1336.17 447.024C1327.72 436.949 1323.49 423.137 1323.49 405.587V292.003H1363.95V400.225C1363.95 406.725 1365.09 411.925 1367.36 415.825C1369.96 419.4 1374.68 421.187 1381.5 421.187C1388.33 421.187 1393.04 419.4 1395.64 415.825C1398.24 411.925 1399.54 406.725 1399.54 400.225V325.64C1399.54 310.69 1397.43 298.503 1393.2 289.079C1389.3 279.654 1380.85 265.842 1367.85 247.642C1354.85 229.768 1345.43 215.631 1339.58 205.231C1333.73 194.831 1329.5 184.107 1326.9 173.057C1324.63 162.007 1323.49 148.033 1323.49 131.133V56.0608C1323.49 38.1863 1327.72 24.3742 1336.17 14.6245C1344.62 4.87484 1358.59 0 1378.09 0H1385.4C1421.8 0 1440 18.6869 1440 56.0608V170.62H1399.54V61.4231C1399.54 54.9233 1398.24 49.886 1395.64 46.3111C1393.04 42.4112 1388.33 40.4613 1381.5 40.4613C1374.68 40.4613 1369.96 42.4112 1367.36 46.3111C1365.09 49.886 1363.95 54.9233 1363.95 61.4231V136.496Z" fill="#B73739"/>
</g>
</svg>
