<svg width="2176" height="152" viewBox="0 0 2176 152" fill="none" xmlns="http://www.w3.org/2000/svg">
<rect width="2176" height="152" fill="#151515"/>
<path d="M67.5078 56.9219H63.6641V53.1016H59.8438V49.2578H56V45.4141H32.9609V41.5703H63.6641V49.2578H67.5078V56.9219ZM32.9609 99.1797H25.2734V95.3359H21.4297V91.4922H17.5859V83.8047H13.7656V60.7656H17.5859V53.1016H21.4297V49.2578H25.2734V45.4141H32.9609V49.2578H29.1172V53.1016H25.2734V60.7656H21.4297V83.8047H25.2734V91.4922H29.1172V95.3359H32.9609V99.1797ZM63.6641 103H32.9609V99.1797H56V95.3359H59.8438V91.4922H63.6641V87.6484H67.5078V95.3359H63.6641V103ZM113.562 45.4141H94.3672V41.5703H113.562V45.4141ZM94.3672 99.1797H86.6797V95.3359H82.8359V91.4922H78.9922V83.8047H75.1719V60.7656H78.9922V53.1016H82.8359V49.2578H86.6797V45.4141H94.3672V49.2578H90.5234V53.1016H86.6797V60.7656H82.8359V83.8047H86.6797V91.4922H90.5234V95.3359H94.3672V99.1797ZM121.25 99.1797H113.562V95.3359H117.406V91.4922H121.25V83.8047H125.07V60.7656H121.25V53.1016H117.406V49.2578H113.562V45.4141H121.25V49.2578H125.07V53.1016H128.914V60.7656H132.758V83.8047H128.914V91.4922H125.07V95.3359H121.25V99.1797ZM113.562 103H94.3672V99.1797H113.562V103ZM155.727 103H136.531V99.1797H144.195V45.4141H136.531V41.5703H155.727V56.9219H159.57V68.4531H163.391V79.9609H167.234V91.4922H171.078V103H163.391V91.4922H159.57V79.9609H155.727V68.4531H151.883V56.9219H148.039V99.1797H155.727V103ZM201.805 103H178.766V99.1797H186.43V56.9219H182.609V41.5703H201.805V45.4141H194.117V99.1797H201.805V103ZM182.609 68.4531H178.766V56.9219H182.609V68.4531ZM178.766 79.9609H174.922V68.4531H178.766V79.9609ZM174.922 91.4922H171.078V79.9609H174.922V91.4922ZM232.508 103H209.469V99.1797H217.133V45.4141H209.469V41.5703H247.859V45.4141H251.703V49.2578H255.547V68.4531H251.703V72.2969H247.859V76.1406H228.664V72.2969H244.016V68.4531H247.859V49.2578H244.016V45.4141H224.82V99.1797H232.508V103ZM307.391 103H261.312V99.1797H268.977V45.4141H261.312V41.5703H284.352V45.4141H276.664V99.1797H299.703V95.3359H303.547V91.4922H307.391V87.6484H311.211V95.3359H307.391V103ZM363.078 103H317V99.1797H324.664V45.4141H317V41.5703H359.234V49.2578H363.078V56.9219H359.234V53.1016H355.391V49.2578H351.547V45.4141H332.352V68.4531H351.547V60.7656H355.391V79.9609H351.547V72.2969H332.352V99.1797H355.391V95.3359H359.234V91.4922H363.078V87.6484H366.898V95.3359H363.078V103ZM424.391 103H401.352V99.1797H409.039V93.4141H405.195V87.6484H401.352V81.8828H397.531V76.1406H393.688V70.375H389.844V64.6094H386V58.8438H382.156V53.1016H378.312V45.4141H370.672V41.5703H393.688V45.4141H386V51.1797H389.844V56.9219H393.688V62.6875H397.531V68.4531H401.352V74.2188H405.195V79.9609H409.039V85.7266H412.883V91.4922H416.727V99.1797H424.391V103ZM416.727 51.1797H412.883V45.4141H405.195V41.5703H424.391V45.4141H416.727V51.1797ZM412.883 56.9219H409.039V51.1797H412.883V56.9219ZM409.039 62.6875H405.195V56.9219H409.039V62.6875ZM405.195 68.4531H401.352V62.6875H405.195V68.4531ZM393.688 81.8828H389.844V76.1406H393.688V81.8828ZM389.844 87.6484H386V81.8828H389.844V87.6484ZM386 93.4141H382.156V87.6484H386V93.4141ZM389.844 103H370.672V99.1797H378.312V93.4141H382.156V99.1797H389.844V103ZM453.195 103H430.156V99.1797H437.82V45.4141H430.156V41.5703H453.195V45.4141H445.508V99.1797H453.195V103ZM499.273 103H476.234V99.1797H483.922V45.4141H468.547V49.2578H464.703V53.1016H460.883V56.9219H457.062V49.2578H460.883V37.7266H464.703V41.5703H514.625V37.7266H518.469V49.2578H514.625V56.9219H510.781V45.4141H491.586V99.1797H499.273V103ZM562.602 103H539.562V99.1797H547.25V76.1406H543.406V68.4531H539.562V60.7656H535.719V53.1016H531.875V45.4141H524.234V41.5703H547.25V45.4141H539.562V53.1016H543.406V60.7656H547.25V68.4531H551.094V76.1406H554.914V99.1797H562.602V103ZM570.289 53.1016H566.445V45.4141H558.758V41.5703H577.953V45.4141H570.289V53.1016ZM566.445 60.7656H562.602V53.1016H566.445V60.7656ZM562.602 68.4531H558.758V60.7656H562.602V68.4531ZM558.758 76.1406H554.914V68.4531H558.758V76.1406ZM637.484 103H599.094V99.1797H606.758V45.4141H599.094V41.5703H637.484V45.4141H614.445V99.1797H637.484V103ZM645.172 99.1797H637.484V95.3359H641.328V91.4922H645.172V83.8047H648.992V60.7656H645.172V53.1016H641.328V49.2578H637.484V45.4141H645.172V49.2578H648.992V53.1016H652.836V60.7656H656.68V83.8047H652.836V91.4922H648.992V95.3359H645.172V99.1797ZM683.539 103H660.5V99.1797H668.164V45.4141H660.5V41.5703H683.539V45.4141H675.852V99.1797H683.539V103ZM725.797 103H695.07V95.3359H691.25V87.6484H695.07V91.4922H698.914V95.3359H702.758V99.1797H721.953V95.3359H725.797V81.8828H721.953V78.0625H714.289V74.2188H706.602V70.375H698.914V66.5312H695.07V62.6875H691.25V49.2578H695.07V45.4141H698.914V41.5703H725.797V45.4141H729.641V53.1016H725.797V49.2578H721.953V45.4141H702.758V49.2578H698.914V58.8438H702.758V62.6875H710.445V66.5312H718.109V70.375H725.797V74.2188H729.641V78.0625H733.484V95.3359H729.641V99.1797H725.797V103ZM777.617 103H754.578V99.1797H762.266V45.4141H746.891V49.2578H743.047V53.1016H739.227V56.9219H735.406V49.2578H739.227V37.7266H743.047V41.5703H792.969V37.7266H796.812V49.2578H792.969V56.9219H789.125V45.4141H769.93V99.1797H777.617V103ZM825.57 103H802.531V99.1797H810.195V45.4141H802.531V41.5703H825.57V45.4141H817.883V99.1797H825.57V103ZM879.359 103H833.281V99.1797H840.945V45.4141H833.281V41.5703H856.32V45.4141H848.633V99.1797H871.672V95.3359H875.516V91.4922H879.359V87.6484H883.18V95.3359H879.359V103ZM935.047 103H888.969V99.1797H896.633V45.4141H888.969V41.5703H912.008V45.4141H904.32V99.1797H927.359V95.3359H931.203V91.4922H935.047V87.6484H938.867V95.3359H935.047V103ZM990.734 103H944.656V99.1797H952.32V45.4141H944.656V41.5703H986.891V49.2578H990.734V56.9219H986.891V53.1016H983.047V49.2578H979.203V45.4141H960.008V68.4531H979.203V60.7656H983.047V79.9609H979.203V72.2969H960.008V99.1797H983.047V95.3359H986.891V91.4922H990.734V87.6484H994.555V95.3359H990.734V103ZM1038.64 103H1000.25V99.1797H1007.91V45.4141H1000.25V41.5703H1038.64V45.4141H1015.6V99.1797H1038.64V103ZM1046.33 99.1797H1038.64V95.3359H1042.48V91.4922H1046.33V83.8047H1050.15V60.7656H1046.33V53.1016H1042.48V49.2578H1038.64V45.4141H1046.33V49.2578H1050.15V53.1016H1053.99V60.7656H1057.84V83.8047H1053.99V91.4922H1050.15V95.3359H1046.33V99.1797ZM1105.88 103H1082.84V99.1797H1090.51V45.4141H1082.84V41.5703H1105.88V45.4141H1098.2V99.1797H1105.88V103ZM1132.79 103H1113.59V99.1797H1121.26V45.4141H1113.59V41.5703H1132.79V49.2578H1136.63V56.9219H1140.45V64.6094H1144.3V72.2969H1148.14V79.9609H1151.98V87.6484H1155.83V95.3359H1159.67V45.4141H1151.98V41.5703H1171.18V45.4141H1163.49V103H1151.98V95.3359H1148.14V87.6484H1144.3V79.9609H1140.45V72.2969H1136.63V64.6094H1132.79V56.9219H1128.95V49.2578H1125.1V99.1797H1132.79V103ZM1219.18 103H1196.14V99.1797H1203.83V45.4141H1188.45V49.2578H1184.61V53.1016H1180.79V56.9219H1176.97V49.2578H1180.79V37.7266H1184.61V41.5703H1234.53V37.7266H1238.38V49.2578H1234.53V56.9219H1230.69V45.4141H1211.49V99.1797H1219.18V103ZM1278.69 45.4141H1259.49V41.5703H1278.69V45.4141ZM1259.49 99.1797H1251.8V95.3359H1247.96V91.4922H1244.12V83.8047H1240.3V60.7656H1244.12V53.1016H1247.96V49.2578H1251.8V45.4141H1259.49V49.2578H1255.65V53.1016H1251.8V60.7656H1247.96V83.8047H1251.8V91.4922H1255.65V95.3359H1259.49V99.1797ZM1286.38 99.1797H1278.69V95.3359H1282.53V91.4922H1286.38V83.8047H1290.2V60.7656H1286.38V53.1016H1282.53V49.2578H1278.69V45.4141H1286.38V49.2578H1290.2V53.1016H1294.04V60.7656H1297.88V83.8047H1294.04V91.4922H1290.2V95.3359H1286.38V99.1797ZM1278.69 103H1259.49V99.1797H1278.69V103ZM1345.88 103H1322.84V99.1797H1330.51V45.4141H1322.84V41.5703H1345.88V45.4141H1338.2V68.4531H1365.08V45.4141H1357.39V41.5703H1380.43V45.4141H1372.74V99.1797H1380.43V103H1357.39V99.1797H1365.08V72.2969H1338.2V99.1797H1345.88V103ZM1428.38 103H1405.34V99.1797H1401.5V95.3359H1397.66V87.6484H1393.81V45.4141H1386.17V41.5703H1409.19V45.4141H1401.5V87.6484H1405.34V95.3359H1409.19V99.1797H1428.38V103ZM1439.89 87.6484H1436.07V45.4141H1428.38V41.5703H1447.58V45.4141H1439.89V87.6484ZM1436.07 95.3359H1432.23V87.6484H1436.07V95.3359ZM1432.23 99.1797H1428.38V95.3359H1432.23V99.1797ZM1472.54 103H1453.34V99.1797H1461.01V45.4141H1453.34V41.5703H1472.54V56.9219H1476.38V68.4531H1480.2V79.9609H1484.05V91.4922H1487.89V103H1480.2V91.4922H1476.38V79.9609H1472.54V68.4531H1468.7V56.9219H1464.85V99.1797H1472.54V103ZM1518.62 103H1495.58V99.1797H1503.24V56.9219H1499.42V41.5703H1518.62V45.4141H1510.93V99.1797H1518.62V103ZM1499.42 68.4531H1495.58V56.9219H1499.42V68.4531ZM1495.58 79.9609H1491.73V68.4531H1495.58V79.9609ZM1491.73 91.4922H1487.89V79.9609H1491.73V91.4922ZM1578.08 103H1555.04V99.1797H1562.73V87.6484H1558.88V83.8047H1539.69V87.6484H1535.84V76.1406H1539.69V79.9609H1558.88V76.1406H1555.04V64.6094H1551.22V53.1016H1547.38V41.5703H1551.22V37.7266H1555.04V53.1016H1558.88V64.6094H1562.73V76.1406H1566.57V87.6484H1570.41V99.1797H1578.08V103ZM1547.38 64.6094H1543.53V53.1016H1547.38V64.6094ZM1543.53 76.1406H1539.69V64.6094H1543.53V76.1406ZM1543.53 103H1524.36V99.1797H1532V87.6484H1535.84V99.1797H1543.53V103ZM1603.04 103H1583.84V99.1797H1591.51V45.4141H1583.84V41.5703H1603.04V49.2578H1606.88V56.9219H1610.7V64.6094H1614.55V72.2969H1618.39V79.9609H1622.23V87.6484H1626.08V95.3359H1629.92V45.4141H1622.23V41.5703H1641.43V45.4141H1633.74V103H1622.23V95.3359H1618.39V87.6484H1614.55V79.9609H1610.7V72.2969H1606.88V64.6094H1603.04V56.9219H1599.2V49.2578H1595.35V99.1797H1603.04V103ZM1697.14 103H1666.41V95.3359H1662.59V87.6484H1666.41V91.4922H1670.26V95.3359H1674.1V99.1797H1693.3V95.3359H1697.14V81.8828H1693.3V78.0625H1685.63V74.2188H1677.95V70.375H1670.26V66.5312H1666.41V62.6875H1662.59V49.2578H1666.41V45.4141H1670.26V41.5703H1697.14V45.4141H1700.98V53.1016H1697.14V49.2578H1693.3V45.4141H1674.1V49.2578H1670.26V58.8438H1674.1V62.6875H1681.79V66.5312H1689.45V70.375H1697.14V74.2188H1700.98V78.0625H1704.83V95.3359H1700.98V99.1797H1697.14V103ZM1733.63 103H1710.59V99.1797H1718.26V45.4141H1710.59V41.5703H1733.63V45.4141H1725.95V99.1797H1733.63V103ZM1760.54 103H1741.34V99.1797H1749.01V45.4141H1741.34V41.5703H1760.54V56.9219H1764.38V68.4531H1768.2V79.9609H1772.05V91.4922H1775.89V103H1768.2V91.4922H1764.38V79.9609H1760.54V68.4531H1756.7V56.9219H1752.85V99.1797H1760.54V103ZM1806.62 103H1783.58V99.1797H1791.24V56.9219H1787.42V41.5703H1806.62V45.4141H1798.93V99.1797H1806.62V103ZM1787.42 68.4531H1783.58V56.9219H1787.42V68.4531ZM1783.58 79.9609H1779.73V68.4531H1783.58V79.9609ZM1779.73 91.4922H1775.89V79.9609H1779.73V91.4922ZM1837.32 103H1814.28V99.1797H1821.95V45.4141H1814.28V41.5703H1852.67V45.4141H1856.52V49.2578H1860.36V68.4531H1856.52V72.2969H1852.67V76.1406H1833.48V72.2969H1848.83V68.4531H1852.67V49.2578H1848.83V45.4141H1829.63V99.1797H1837.32V103ZM1912.2 103H1866.12V99.1797H1873.79V45.4141H1866.12V41.5703H1889.16V45.4141H1881.48V99.1797H1904.52V95.3359H1908.36V91.4922H1912.2V87.6484H1916.02V95.3359H1912.2V103ZM1944.85 103H1921.81V99.1797H1929.48V45.4141H1921.81V41.5703H1944.85V45.4141H1937.16V99.1797H1944.85V103ZM2002.41 56.9219H1998.57V53.1016H1994.75V49.2578H1990.91V45.4141H1967.87V41.5703H1998.57V49.2578H2002.41V56.9219ZM1967.87 99.1797H1960.18V95.3359H1956.34V91.4922H1952.49V83.8047H1948.67V60.7656H1952.49V53.1016H1956.34V49.2578H1960.18V45.4141H1967.87V49.2578H1964.02V53.1016H1960.18V60.7656H1956.34V83.8047H1960.18V91.4922H1964.02V95.3359H1967.87V99.1797ZM1998.57 103H1967.87V99.1797H1990.91V95.3359H1994.75V91.4922H1998.57V87.6484H2002.41V95.3359H1998.57V103ZM2033.16 103H2010.12V99.1797H2017.79V45.4141H2010.12V41.5703H2033.16V45.4141H2025.48V99.1797H2033.16V103ZM2079.24 103H2056.2V99.1797H2063.89V45.4141H2048.52V49.2578H2044.67V53.1016H2040.85V56.9219H2037.03V49.2578H2040.85V37.7266H2044.67V41.5703H2094.59V37.7266H2098.44V49.2578H2094.59V56.9219H2090.75V45.4141H2071.55V99.1797H2079.24V103ZM2142.57 103H2119.53V99.1797H2127.22V76.1406H2123.38V68.4531H2119.53V60.7656H2115.69V53.1016H2111.84V45.4141H2104.2V41.5703H2127.22V45.4141H2119.53V53.1016H2123.38V60.7656H2127.22V68.4531H2131.06V76.1406H2134.88V99.1797H2142.57V103ZM2150.26 53.1016H2146.41V45.4141H2138.73V41.5703H2157.92V45.4141H2150.26V53.1016ZM2146.41 60.7656H2142.57V53.1016H2146.41V60.7656ZM2142.57 68.4531H2138.73V60.7656H2142.57V68.4531ZM2138.73 76.1406H2134.88V68.4531H2138.73V76.1406ZM2163.66 103H2156V95.3359H2163.66V103Z" fill="#4F4E4D"/>
</svg>
