<svg width="160" height="40" viewBox="0 0 160 40" fill="none" xmlns="http://www.w3.org/2000/svg">
<mask id="path-1-inside-1_202_19" fill="white">
<path d="M3.2002 3.2002H11.2002V11.2002H3.2002V3.2002Z"/>
</mask>
<path d="M3.2002 3.2002V1.86686H1.86686V3.2002H3.2002ZM3.2002 3.2002V4.53353H11.2002V3.2002V1.86686H3.2002V3.2002ZM3.2002 11.2002H4.53353V3.2002H3.2002H1.86686V11.2002H3.2002Z" fill="#B73739" mask="url(#path-1-inside-1_202_19)"/>
<mask id="path-3-inside-2_202_19" fill="white">
<path d="M3.2002 28.7998H11.2002V36.7998H3.2002V28.7998Z"/>
</mask>
<path d="M3.2002 36.7998H1.86686V38.1331H3.2002V36.7998ZM11.2002 36.7998V35.4665H3.2002V36.7998V38.1331H11.2002V36.7998ZM3.2002 36.7998H4.53353V28.7998H3.2002H1.86686V36.7998H3.2002Z" fill="#B73739" mask="url(#path-3-inside-2_202_19)"/>
<mask id="path-5-inside-3_202_19" fill="white">
<path d="M148.8 28.7998H156.8V36.7998H148.8V28.7998Z"/>
</mask>
<path d="M156.8 36.7998V38.1331H158.133V36.7998H156.8ZM156.8 28.7998H155.466V36.7998H156.8H158.133V28.7998H156.8ZM156.8 36.7998V35.4665H148.8V36.7998V38.1331H156.8V36.7998Z" fill="#B73739" mask="url(#path-5-inside-3_202_19)"/>
<mask id="path-7-inside-4_202_19" fill="white">
<path d="M148.8 3.2002H156.8V11.2002H148.8V3.2002Z"/>
</mask>
<path d="M156.8 3.2002H158.133V1.86686H156.8V3.2002ZM148.8 3.2002V4.53353H156.8V3.2002V1.86686H148.8V3.2002ZM156.8 3.2002H155.466V11.2002H156.8H158.133V3.2002H156.8Z" fill="#B73739" mask="url(#path-7-inside-4_202_19)"/>
</svg>
